<?xml version="1.0" standalone="no"?>
<!DOCTYPE svg PUBLIC "-//W3C//DTD SVG 20010904//EN"
 "http://www.w3.org/TR/2001/REC-SVG-20010904/DTD/svg10.dtd">
<svg version="1.0" xmlns="http://www.w3.org/2000/svg"
 width="512.000000pt" height="512.000000pt" viewBox="0 0 512.000000 512.000000"
 preserveAspectRatio="xMidYMid meet">
<metadata>
Created by potrace 1.14, written by Peter Selinger 2001-2017
</metadata>
<g transform="translate(0.000000,512.000000) scale(0.100000,-0.100000)"
fill="#000000" stroke="none">
<path d="M4508 5115 c-2 -1 -33 -6 -70 -9 -37 -4 -77 -9 -90 -11 -13 -2 -79
-13 -148 -25 -263 -44 -608 -144 -845 -245 -161 -68 -365 -168 -429 -209 -31
-20 -59 -36 -62 -36 -23 0 -469 -310 -536 -372 -7 -7 -45 -40 -83 -73 -86 -73
-320 -306 -403 -400 -52 -60 -66 -70 -96 -72 -60 -3 -190 -23 -261 -40 -34 -8
-29 -7 -75 -17 -71 -16 -248 -80 -345 -125 -377 -174 -721 -479 -930 -824 -31
-51 -60 -99 -65 -107 -100 -163 -82 -291 46 -335 50 -17 87 -12 165 24 78 35
258 95 319 107 25 4 47 8 50 9 3 1 28 5 55 10 28 4 59 10 70 12 43 9 285 11
285 1 0 -14 -29 -108 -45 -143 -10 -24 -60 -58 -246 -169 -329 -196 -338 -201
-360 -250 -22 -49 -24 -95 -5 -139 7 -18 74 -92 149 -166 l136 -135 -28 -35
c-86 -110 -226 -331 -290 -460 -142 -281 -156 -453 -47 -563 50 -50 92 -63
196 -62 101 1 158 17 308 86 124 58 410 235 512 317 14 11 28 21 33 21 4 0 63
-56 132 -125 68 -69 139 -134 157 -145 60 -36 158 -21 204 31 12 13 94 146
183 296 l163 271 81 25 c44 14 84 24 88 21 17 -10 0 -281 -26 -409 -25 -122
-69 -262 -115 -360 -43 -92 -45 -159 -5 -210 36 -49 64 -65 121 -71 43 -5 59
0 129 34 494 242 900 706 1079 1234 49 146 75 263 95 433 8 70 13 83 38 103
112 93 301 280 468 465 6 7 55 68 108 137 451 577 734 1251 828 1970 21 159
22 281 5 349 -33 127 -108 234 -218 309 -27 18 -48 30 -48 26 0 -3 -6 -1 -14
5 -29 24 -115 43 -213 46 -56 2 -103 2 -105 0z"/>
</g>
</svg>
